# xmcd
#
# Track frame offsets:
#	150
#	25862
#	39382
#	61048
#	86966
#	107811
#	124438
#	154908
#	178793
#	197003
#	212379
#	232649
#	256247
#
# Disc length: 3846 seconds
#
# Revision: 0
# Processed by: cddbd v1.5.2PL0 Copyright (c) Steve Scherf et al.
# Submitted via: audiograbber 1.83.01
#
DISCID=a70f040d
DTITLE=Young, Neil - Heart of Gold Live 10CD10
DYEAR=1990
DGENRE=POP-ROCK-JAZZ
TTITLE0=Comes a time
TTITLE1=The needle and the damage done
TTITLE2=Mother Earth
TTITLE3=Four strong winds
TTITLE4=Helpless
TTITLE5=Heart of gold
TTITLE6=Sugar mountain
TTITLE7=Harvest moon
TTITLE8=Old man
TTITLE9=Heart of gold
TTITLE10=Rockin' in the free world
TTITLE11=Mother Earth
TTITLE12=Rockin' in the free world (with Pearl Jam)
EXTD=
EXTT0=
EXTT1=
EXTT2=
EXTT3=
EXTT4=
EXTT5=
EXTT6=
EXTT7=
EXTT8=
EXTT9=
EXTT10=
EXTT11=
EXTT12=
PLAYORDER=
